<svg width="24" height="24" viewBox="0 0 24 24" fill="none" xmlns="http://www.w3.org/2000/svg">
<path d="M2 6V12C2 13.1046 2.89543 14 4 14H6V17.5L11 14H16C17.1046 14 18 13.1046 18 12V6C18 4.89543 17.1046 4 16 4H4C2.89543 4 2 4.89543 2 6Z" fill="#979797"/>
<path d="M22.75 6C22.75 5.58579 22.4142 5.25 22 5.25C21.5858 5.25 21.25 5.58579 21.25 6V15C21.25 15.6904 20.6904 16.25 20 16.25H18.5C18.0858 16.25 17.75 16.5858 17.75 17V19.0595L13.9301 16.3856C13.804 16.2973 13.6539 16.25 13.5 16.25H12C11.5858 16.25 11.25 16.5858 11.25 17C11.25 17.4142 11.5858 17.75 12 17.75H13.2636L18.0699 21.1144C18.299 21.2748 18.5983 21.2944 18.8464 21.1652C19.0944 21.0361 19.25 20.7797 19.25 20.5V17.75H20C21.5188 17.75 22.75 16.5188 22.75 15V6Z" fill="#979797"/>
</svg>
