<svg width="24" height="24" viewBox="0 0 24 24" fill="none" xmlns="http://www.w3.org/2000/svg">
<rect width="24" height="24" fill="white"/>
<path fill-rule="evenodd" clip-rule="evenodd" d="M2.75 6C2.75 5.30964 3.30964 4.75 4 4.75H16C16.6904 4.75 17.25 5.30964 17.25 6V12C17.25 12.6904 16.6904 13.25 16 13.25H11C10.8461 13.25 10.696 13.2973 10.5699 13.3856L6.75 16.0595V14C6.75 13.5858 6.41421 13.25 6 13.25H4C3.30964 13.25 2.75 12.6904 2.75 12V6ZM4 3.25C2.48122 3.25 1.25 4.48122 1.25 6V12C1.25 13.5188 2.48122 14.75 4 14.75H5.25V17.5C5.25 17.7797 5.40559 18.0361 5.65364 18.1652C5.90169 18.2944 6.20099 18.2748 6.4301 18.1144L11.2364 14.75H16C17.5188 14.75 18.75 13.5188 18.75 12V6C18.75 4.48122 17.5188 3.25 16 3.25H4ZM22.75 6C22.75 5.58579 22.4142 5.25 22 5.25C21.5858 5.25 21.25 5.58579 21.25 6V15C21.25 15.6904 20.6904 16.25 20 16.25H18.5C18.0858 16.25 17.75 16.5858 17.75 17V19.0595L13.9301 16.3856C13.804 16.2973 13.6539 16.25 13.5 16.25H12C11.5858 16.25 11.25 16.5858 11.25 17C11.25 17.4142 11.5858 17.75 12 17.75H13.2636L18.0699 21.1144C18.299 21.2748 18.5983 21.2944 18.8464 21.1652C19.0944 21.0361 19.25 20.7797 19.25 20.5V17.75H20C21.5188 17.75 22.75 16.5188 22.75 15V6Z" fill="#979797"/>
</svg>
