<svg width="24" height="24" viewBox="0 0 24 24" fill="none" xmlns="http://www.w3.org/2000/svg">
<g clip-path="url(#clip0_15_2709)">
<mask id="mask0_15_2709" style="mask-type:luminance" maskUnits="userSpaceOnUse" x="0" y="0" width="24" height="24">
<path d="M0.497467 0.497498H23.5014V23.5015H0.497467V0.497498Z" fill="white"/>
</mask>
<g mask="url(#mask0_15_2709)">
<path d="M3.94803 0.497498H20.0508C20.1073 0.497498 20.1637 0.498873 20.2202 0.501623C20.2765 0.504373 20.3328 0.50856 20.389 0.51406C20.4453 0.519623 20.5013 0.52656 20.5572 0.53481C20.613 0.543123 20.6687 0.552748 20.724 0.563748C20.7794 0.57481 20.8345 0.587185 20.8893 0.600873C20.944 0.614623 20.9985 0.629685 21.0525 0.64606C21.1065 0.662435 21.1602 0.680123 21.2133 0.699185C21.2665 0.718185 21.3192 0.738498 21.3713 0.760123C21.4235 0.781748 21.4751 0.804623 21.5262 0.828748C21.5772 0.852935 21.6277 0.87831 21.6774 0.904935C21.7272 0.93156 21.7763 0.959373 21.8248 0.988373C21.8732 1.01744 21.9209 1.04762 21.9679 1.079C22.0148 1.11037 22.061 1.14287 22.1063 1.1765C22.1517 1.21018 22.1962 1.24487 22.2398 1.28075C22.2835 1.31656 22.3263 1.35343 22.3681 1.39137C22.41 1.42925 22.4508 1.46819 22.4908 1.50812C22.5307 1.54806 22.5697 1.58894 22.6075 1.63081C22.6455 1.67262 22.6823 1.71537 22.7182 1.75906C22.754 1.80269 22.7887 1.84719 22.8224 1.89256C22.856 1.93793 22.8885 1.98406 22.9199 2.031C22.9513 2.078 22.9815 2.12568 23.0105 2.17412C23.0395 2.22256 23.0673 2.27168 23.094 2.3215C23.1206 2.37125 23.146 2.42168 23.1702 2.47275C23.1943 2.52381 23.2172 2.57543 23.2388 2.62756C23.2604 2.67975 23.2807 2.73243 23.2997 2.78562C23.3187 2.83875 23.3365 2.89237 23.3528 2.94643C23.3692 3.00043 23.3843 3.05487 23.398 3.10962C23.4117 3.16443 23.4241 3.2195 23.4352 3.27487C23.4462 3.33025 23.4558 3.38587 23.4641 3.44175C23.4723 3.49762 23.4793 3.55362 23.4848 3.60987C23.4903 3.66606 23.4945 3.72237 23.4973 3.77875C23.5 3.83518 23.5014 3.89162 23.5014 3.94806V20.0509C23.5014 20.1073 23.5 20.1637 23.4973 20.2202C23.4945 20.2766 23.4903 20.3329 23.4848 20.3891C23.4793 20.4453 23.4723 20.5013 23.4641 20.5572C23.4558 20.6131 23.4462 20.6687 23.4352 20.7241C23.4241 20.7794 23.4117 20.8345 23.398 20.8893C23.3843 20.9441 23.3692 20.9985 23.3528 21.0525C23.3365 21.1066 23.3187 21.1602 23.2997 21.2133C23.2807 21.2665 23.2604 21.3192 23.2388 21.3714C23.2172 21.4235 23.1943 21.4751 23.1702 21.5262C23.146 21.5772 23.1206 21.6277 23.094 21.6775C23.0673 21.7272 23.0395 21.7764 23.0105 21.8248C22.9815 21.8732 22.9513 21.9209 22.9199 21.9679C22.8885 22.0149 22.856 22.061 22.8224 22.1064C22.7887 22.1517 22.754 22.1962 22.7182 22.2399C22.6823 22.2836 22.6455 22.3263 22.6075 22.3681C22.5697 22.41 22.5307 22.4509 22.4908 22.4908C22.4508 22.5307 22.41 22.5697 22.3681 22.6076C22.3263 22.6455 22.2835 22.6824 22.2398 22.7182C22.1962 22.7541 22.1517 22.7887 22.1063 22.8224C22.061 22.8561 22.0148 22.8886 21.9679 22.9199C21.9209 22.9513 21.8732 22.9815 21.8248 23.0106C21.7763 23.0396 21.7272 23.0674 21.6774 23.094C21.6277 23.1206 21.5772 23.146 21.5262 23.1702C21.4751 23.1943 21.4235 23.2172 21.3713 23.2388C21.3192 23.2604 21.2665 23.2807 21.2133 23.2997C21.1602 23.3188 21.1065 23.3365 21.0525 23.3529C20.9985 23.3692 20.944 23.3843 20.8893 23.3981C20.8345 23.4117 20.7794 23.4241 20.724 23.4352C20.6687 23.4462 20.613 23.4558 20.5572 23.4641C20.5013 23.4724 20.4453 23.4793 20.389 23.4849C20.3328 23.4904 20.2765 23.4946 20.2202 23.4973C20.1637 23.5001 20.1073 23.5015 20.0508 23.5015H3.94803C3.89159 23.5015 3.83515 23.5001 3.77872 23.4973C3.72234 23.4946 3.66603 23.4904 3.60984 23.4849C3.55359 23.4793 3.49759 23.4724 3.44172 23.4641C3.38584 23.4558 3.33022 23.4462 3.27484 23.4352C3.21947 23.4241 3.1644 23.4117 3.10959 23.3981C3.05484 23.3843 3.0004 23.3692 2.9464 23.3529C2.89234 23.3365 2.83872 23.3188 2.78559 23.2997C2.7324 23.2807 2.67972 23.2604 2.62753 23.2388C2.5754 23.2172 2.52378 23.1943 2.47272 23.1702C2.42165 23.146 2.37122 23.1206 2.3214 23.094C2.27165 23.0674 2.22253 23.0396 2.17409 23.0106C2.12565 22.9815 2.07797 22.9513 2.03097 22.9199C1.98403 22.8886 1.9379 22.8561 1.89253 22.8224C1.84715 22.7887 1.80265 22.7541 1.75897 22.7182C1.71534 22.6824 1.67259 22.6455 1.63078 22.6076C1.5889 22.5697 1.54803 22.5307 1.50809 22.4908C1.46815 22.4509 1.42922 22.41 1.39128 22.3681C1.3534 22.3263 1.31653 22.2836 1.28072 22.2399C1.24484 22.1962 1.21015 22.1517 1.17647 22.1064C1.14284 22.061 1.11034 22.0149 1.07897 21.9679C1.04759 21.9209 1.0174 21.8732 0.988342 21.8248C0.959342 21.7764 0.93153 21.7272 0.904905 21.6775C0.87828 21.6277 0.852905 21.5772 0.828717 21.5262C0.804592 21.4751 0.781717 21.4235 0.760092 21.3714C0.738467 21.3192 0.718155 21.2665 0.699155 21.2133C0.680092 21.1602 0.662405 21.1066 0.64603 21.0525C0.629655 20.9985 0.614592 20.9441 0.600842 20.8893C0.587155 20.8345 0.57478 20.7794 0.563717 20.7241C0.552717 20.6687 0.543092 20.6131 0.53478 20.5572C0.526467 20.5013 0.519592 20.4453 0.51403 20.3891C0.50853 20.3329 0.504342 20.2766 0.501592 20.2202C0.498842 20.1637 0.497467 20.1073 0.497467 20.0509V3.94806C0.497467 3.89162 0.498842 3.83518 0.501592 3.77875C0.504342 3.72237 0.50853 3.66606 0.51403 3.60987C0.519592 3.55362 0.526467 3.49762 0.53478 3.44175C0.543092 3.38587 0.552717 3.33025 0.563717 3.27487C0.57478 3.2195 0.587155 3.16443 0.600842 3.10962C0.614592 3.05487 0.629655 3.00043 0.64603 2.94643C0.662405 2.89237 0.680092 2.83875 0.699155 2.78562C0.718155 2.73243 0.738467 2.67975 0.760092 2.62756C0.781717 2.57543 0.804592 2.52381 0.828717 2.47275C0.852905 2.42168 0.87828 2.37125 0.904905 2.3215C0.93153 2.27168 0.959342 2.22256 0.988342 2.17412C1.0174 2.12568 1.04759 2.078 1.07897 2.031C1.11034 1.98406 1.14284 1.93793 1.17647 1.89256C1.21015 1.84719 1.24484 1.80269 1.28072 1.75906C1.31653 1.71537 1.3534 1.67262 1.39128 1.63081C1.42922 1.58894 1.46815 1.54806 1.50809 1.50812C1.54803 1.46819 1.5889 1.42925 1.63078 1.39137C1.67259 1.35343 1.71534 1.31656 1.75897 1.28075C1.80265 1.24487 1.84715 1.21018 1.89253 1.1765C1.9379 1.14287 1.98403 1.11037 2.03097 1.079C2.07797 1.04762 2.12565 1.01744 2.17409 0.988373C2.22253 0.959373 2.27165 0.93156 2.3214 0.904935C2.37122 0.87831 2.42165 0.852935 2.47272 0.828748C2.52378 0.804623 2.5754 0.781748 2.62753 0.760123C2.67972 0.738498 2.7324 0.718185 2.78559 0.699185C2.83872 0.680123 2.89234 0.662435 2.9464 0.64606C3.0004 0.629685 3.05484 0.614623 3.10959 0.600873C3.1644 0.587185 3.21947 0.57481 3.27484 0.563748C3.33022 0.552748 3.38584 0.543123 3.44172 0.53481C3.49759 0.52656 3.55359 0.519623 3.60984 0.51406C3.66603 0.50856 3.72234 0.504373 3.77872 0.501623C3.83515 0.498873 3.89159 0.497498 3.94803 0.497498Z" fill="white"/>
</g>
<g clip-path="url(#clip1_15_2709)">
<path d="M12.1792 3C16.6965 3 20.3584 6.74513 20.3584 11.365C20.3584 15.5402 17.3674 19.0008 13.4572 19.6284V13.783H15.363L15.7257 11.365H13.4572V9.79584C13.4572 9.61822 13.4801 9.44181 13.5332 9.27875C13.6531 8.91046 13.9273 8.61034 14.4412 8.51853C14.5471 8.49961 14.6631 8.48953 14.7901 8.48953H15.8215V6.43096C15.8215 6.43096 14.8855 6.26758 13.9906 6.26758C12.1223 6.26758 10.9012 7.42561 10.9012 9.52209V11.365H8.82446V13.783H10.9012V19.6284C6.99104 19.0008 4 15.5402 4 11.365C4 6.74513 7.66196 3 12.1792 3Z" fill="#1877F2"/>
</g>
</g>
<defs>
<clipPath id="clip0_15_2709">
<rect width="24" height="24" fill="white"/>
</clipPath>
<clipPath id="clip1_15_2709">
<rect width="16.3584" height="16.73" fill="white" transform="translate(4 3)"/>
</clipPath>
</defs>
</svg>
