<svg width="24" height="24" viewBox="0 0 24 24" fill="none" xmlns="http://www.w3.org/2000/svg">
<path d="M6.88635 7.45455C6.88635 7.04033 7.22214 6.70455 7.63635 6.70455H12.1818C12.596 6.70455 12.9318 7.04033 12.9318 7.45455C12.9318 7.86876 12.596 8.20455 12.1818 8.20455H7.63635C7.22214 8.20455 6.88635 7.86876 6.88635 7.45455Z" fill="#979797"/>
<path d="M15.8182 6.70455C15.404 6.70455 15.0682 7.04033 15.0682 7.45455C15.0682 7.86876 15.404 8.20455 15.8182 8.20455H16.7273C17.1415 8.20455 17.4773 7.86876 17.4773 7.45455C17.4773 7.04033 17.1415 6.70455 16.7273 6.70455H15.8182Z" fill="#979797"/>
<path d="M6.88635 11.0908C6.88635 10.6766 7.22214 10.3408 7.63635 10.3408H12.1818C12.596 10.3408 12.9318 10.6766 12.9318 11.0908C12.9318 11.505 12.596 11.8408 12.1818 11.8408H7.63635C7.22214 11.8408 6.88635 11.505 6.88635 11.0908Z" fill="#979797"/>
<path d="M15.8182 10.3408C15.404 10.3408 15.0682 10.6766 15.0682 11.0908C15.0682 11.505 15.404 11.8408 15.8182 11.8408H16.7273C17.1415 11.8408 17.4773 11.505 17.4773 11.0908C17.4773 10.6766 17.1415 10.3408 16.7273 10.3408H15.8182Z" fill="#979797"/>
<path d="M6.88635 14.7275C6.88635 14.3133 7.22214 13.9775 7.63635 13.9775H12.1818C12.596 13.9775 12.9318 14.3133 12.9318 14.7275C12.9318 15.1417 12.596 15.4775 12.1818 15.4775H7.63635C7.22214 15.4775 6.88635 15.1417 6.88635 14.7275Z" fill="#979797"/>
<path d="M15.8182 13.9775C15.404 13.9775 15.0682 14.3133 15.0682 14.7275C15.0682 15.1417 15.404 15.4775 15.8182 15.4775H16.7273C17.1415 15.4775 17.4773 15.1417 17.4773 14.7275C17.4773 14.3133 17.1415 13.9775 16.7273 13.9775H15.8182Z" fill="#979797"/>
<path fill-rule="evenodd" clip-rule="evenodd" d="M3.25 4C3.25 2.48122 4.48122 1.25 6 1.25H18.3636C19.8824 1.25 21.1136 2.48122 21.1136 4V21.0909C21.1136 21.3675 20.9614 21.6217 20.7175 21.7522C20.4737 21.8827 20.1778 21.8684 19.9476 21.7149L17.6364 20.1741L15.3251 21.7149C15.0732 21.8829 14.745 21.8829 14.4931 21.7149L12.1818 20.1741L9.87057 21.7149C9.61865 21.8829 9.29044 21.8829 9.03852 21.7149L6.72727 20.1741L4.41603 21.7149C4.18588 21.8684 3.88997 21.8827 3.64611 21.7522C3.40224 21.6217 3.25 21.3675 3.25 21.0909V4ZM6 2.75C5.30965 2.75 4.75 3.30965 4.75 4V19.6895L6.31125 18.6487C6.56317 18.4807 6.89137 18.4807 7.1433 18.6487L9.45455 20.1895L11.7658 18.6487C12.0177 18.4807 12.3459 18.4807 12.5978 18.6487L14.9091 20.1895L17.2203 18.6487C17.4723 18.4807 17.8005 18.4807 18.0524 18.6487L19.6136 19.6895V4C19.6136 3.30964 19.054 2.75 18.3636 2.75H6Z" fill="#979797"/>
</svg>
