<svg width="24" height="24" viewBox="0 0 24 24" fill="none" xmlns="http://www.w3.org/2000/svg">
<path fill-rule="evenodd" clip-rule="evenodd" d="M6 2C4.89543 2 4 2.89543 4 4V20.5304C4 20.77 4.26704 20.9129 4.46641 20.78L6.17257 19.6425C6.50847 19.4186 6.94607 19.4186 7.28197 19.6425L8.89985 20.7211C9.23574 20.945 9.67335 20.945 10.0092 20.7211L11.6271 19.6425C11.963 19.4186 12.4006 19.4186 12.7365 19.6425L14.3544 20.7211C14.6903 20.945 15.1279 20.945 15.4638 20.7211L17.0817 19.6425C17.4176 19.4186 17.8552 19.4186 18.1911 19.6425L19.8972 20.78C20.0966 20.9129 20.3636 20.77 20.3636 20.5304V4C20.3636 2.89543 19.4682 2 18.3636 2H6ZM6.88623 7.45459C6.88623 7.04038 7.22202 6.70459 7.63623 6.70459H12.1817C12.5959 6.70459 12.9317 7.04038 12.9317 7.45459C12.9317 7.8688 12.5959 8.20459 12.1817 8.20459H7.63623C7.22202 8.20459 6.88623 7.8688 6.88623 7.45459ZM15.0684 7.45459C15.0684 7.04038 15.4041 6.70459 15.8184 6.70459H16.7275C17.1417 6.70459 17.4775 7.04038 17.4775 7.45459C17.4775 7.8688 17.1417 8.20459 16.7275 8.20459H15.8184C15.4041 8.20459 15.0684 7.8688 15.0684 7.45459ZM7.63623 10.3408C7.22202 10.3408 6.88623 10.6766 6.88623 11.0908C6.88623 11.505 7.22202 11.8408 7.63623 11.8408H12.1817C12.5959 11.8408 12.9317 11.505 12.9317 11.0908C12.9317 10.6766 12.5959 10.3408 12.1817 10.3408H7.63623ZM15.0684 11.0908C15.0684 10.6766 15.4041 10.3408 15.8184 10.3408H16.7275C17.1417 10.3408 17.4775 10.6766 17.4775 11.0908C17.4775 11.505 17.1417 11.8408 16.7275 11.8408H15.8184C15.4041 11.8408 15.0684 11.505 15.0684 11.0908ZM7.63623 13.9775C7.22202 13.9775 6.88623 14.3133 6.88623 14.7275C6.88623 15.1418 7.22202 15.4775 7.63623 15.4775H12.1817C12.5959 15.4775 12.9317 15.1418 12.9317 14.7275C12.9317 14.3133 12.5959 13.9775 12.1817 13.9775H7.63623ZM15.0684 14.7275C15.0684 14.3133 15.4041 13.9775 15.8184 13.9775H16.7275C17.1417 13.9775 17.4775 14.3133 17.4775 14.7275C17.4775 15.1418 17.1417 15.4775 16.7275 15.4775H15.8184C15.4041 15.4775 15.0684 15.1418 15.0684 14.7275Z" fill="#FF8D4D"/>
</svg>
