<svg width="20" height="20" viewBox="0 0 20 20" fill="none" xmlns="http://www.w3.org/2000/svg">
<path fill-rule="evenodd" clip-rule="evenodd" d="M9.51193 0.430549C9.79279 0.189817 10.2072 0.189817 10.4881 0.430549L19.4881 8.14455C19.8026 8.41411 19.839 8.88758 19.5695 9.20208C19.362 9.44417 19.0336 9.5215 18.75 9.42132V18C18.75 18.9665 17.9665 19.75 17 19.75H12.5806C12.5778 19.75 12.575 19.75 12.5722 19.75C12.5694 19.75 12.5666 19.75 12.5638 19.75H7.43759C7.4348 19.75 7.43201 19.75 7.42921 19.75C7.42642 19.75 7.42363 19.75 7.42084 19.75H3.00001C2.03352 19.75 1.25001 18.9665 1.25001 18V9.42132C0.966382 9.5215 0.63806 9.44417 0.430562 9.20208C0.161001 8.88758 0.197431 8.41411 0.511931 8.14455L9.51193 0.430549ZM8.17921 18.25H11.8222V14.571C11.8222 14.2395 11.6905 13.9216 11.4561 13.6872C11.2217 13.4527 10.9037 13.321 10.5722 13.321H9.42921C9.09769 13.321 8.77975 13.4527 8.54533 13.6872C8.31091 13.9216 8.17921 14.2395 8.17921 14.571V18.25ZM13.3222 18.25V14.571C13.3222 13.8417 13.0325 13.1422 12.5168 12.6265C12.001 12.1108 11.3016 11.821 10.5722 11.821H9.42921C8.69987 11.821 8.00039 12.1108 7.48467 12.6265C6.96894 13.1422 6.67921 13.8417 6.67921 14.571V18.25H3.00001C2.86194 18.25 2.75001 18.1381 2.75001 18V8.20185L10 1.98779L17.25 8.20185V18C17.25 18.1381 17.1381 18.25 17 18.25H13.3222Z" fill="#979797"/>
</svg>
