<svg width="20" height="20" viewBox="0 0 20 20" fill="none" xmlns="http://www.w3.org/2000/svg">
    <path
        d="M9.51195 0.430549C9.79282 0.189817 10.2073 0.189817 10.4881 0.430549L19.4881 8.14455C19.7264 8.3488 19.8123 8.67984 19.7035 8.9742C19.5946 9.26857 19.3139 9.464 19 9.464H18.75V18.18C18.75 19.1852 17.9665 20 17 20H13V15.1776C13 14.6001 12.7542 14.0462 12.3166 13.6378C11.879 13.2294 11.2856 13 10.6667 13H9.33327C8.71445 13 8.12097 13.2294 7.6834 13.6378C7.24583 14.0462 7 14.6001 7 15.1776V20H3C2.0335 20 1.25 19.1852 1.25 18.18V9.464H1.00004C0.686176 9.464 0.405509 9.26857 0.29662 8.9742C0.18773 8.67984 0.273649 8.3488 0.511953 8.14455L9.51195 0.430549Z"
        fill="#979797" />
</svg>